# xmcd
#
# Track frame offsets:
# 150
# 13721
# 28858
# 45353
# 75991
# 91060
# 112743
# 135093
# 177470
#
# Disc length: 2590 seconds
#
#
# Revision: 0
# Processed by: cddbd v1.5.2PL0 Copyright (c) Steve Scherf et al.
# Submitted via: FreeRIP 2.96 
#
DISCID=570a1c09
DTITLE=Bluebirds Big Band - Tear it all Down
DYEAR=1900
DGENRE=R&B
TTITLE0=Bump and Grind-01
TTITLE1=Tear it all down-02
TTITLE2=Manic Depression-03
TTITLE3=Love me like before-04
TTITLE4=99 Ponds-05
TTITLE5=Sweet Sally Habit-06
TTITLE6=Black Cow-07
TTITLE7=Voodoo Child-08
TTITLE8=Sleeping-09
EXTD=Live at Allyns Cafe
EXTT0=
EXTT1=
EXTT2=
EXTT3=
EXTT4=
EXTT5=
EXTT6=
EXTT7=
EXTT8=
PLAYORDER=
